PathFileType	4	(X/Y/Z)	C:\Users\Owen\Repositories\CapacitiveSensingKinematics\CSOptimalControl\OutputData\FilteredIMUAccels.trc
DataRate	CameraRate	NumFrames	NumMarkers	Units	OrigDataRate	OrigDataStartFrame	OrigNumFrames
100	100	15	8	m	100	5292	7057
Frame#	Time	/bodyset/torso/torso_imu_offset			/bodyset/pelvis/pelvis_imu_offset			/bodyset/tibia_r/tibia_r_imu_offset			/bodyset/femur_r/femur_r_imu_offset			/bodyset/tibia_l/tibia_l_imu_offset			/bodyset/femur_l/femur_l_imu_offset			/bodyset/toes_r/toes_r_imu_offset			/bodyset/toes_l/toes_l_imu_offset			
		X1	Y1	Z1	X2	Y2	Z2	X3	Y3	Z3	X4	Y4	Z4	X5	Y5	Z5	X6	Y6	Z6	X7	Y7	Z7	X8	Y8	Z8	

5293	52.92	11.31734856306622	-0.09239394194555861	8.734442625417845	12.60770030684073	1.936065179959922	5.388429533337722	14.26479763193026	-3.041887777653885	4.824303392045509	15.86624989102005	-4.565215210192486	2.288719819760942	17.18195326582804	1.160282040418263	1.3992943686327	9.625386612180694	1.19056397831023	-0.9055452516802539	14.07869399056465	4.971773671884455	14.14076003796531	1.612576428200948	1.796835080294171	14.65091756137563	
5294	52.93	11.20426494160114	-0.3669654981513814	8.908167466231776	12.03937456079672	1.715065115066608	5.803645321955423	11.92300341071908	0.5154837363720713	3.423551312929624	14.12277347589967	-4.747646281008135	0.6483282061597975	18.20687016684463	1.205879357217606	0.8559287626610441	9.849750091700315	0.6949979966025293	-0.6633649697087716	13.04192074237519	5.522914626422914	13.35193250632296	2.032426425762271	2.001059187789185	14.71473186469852	
5295	52.94	10.74289821324942	-0.6563211765602903	8.94716964974219	11.09354421438612	0.8792830675791581	6.052236123688147	9.468597207473728	4.152725264689098	1.965369368786017	11.56705786615958	-4.292754721491798	-0.9935720316302077	18.64226088664758	0.6932625340018149	0.2496973231756614	10.23155973716413	-0.0919289272807116	-0.4957992015474467	10.92032793834299	4.935113927901134	12.24038125691688	3.382938249198251	2.220526233431763	14.61908749336878	
5296	52.95	10.07368347838761	-0.9277789202687353	8.837400465958057	10.04568736464295	-0.3422515648570257	6.156187266769054	7.568228342246623	6.91404945796654	0.6162303632469908	9.03507546360041	-3.136797678216215	-2.316093409023404	18.32666509231286	-0.3718251891382405	-0.2966873925258084	10.68894429407061	-1.030862143922259	-0.437502249967868	8.664795364487647	3.451617121115133	11.11977508017825	5.778823847788099	2.609566762929801	14.4361604558527	
5297	52.96	9.404936888785643	-1.149494414146615	8.595123099971509	9.183186388164934	-1.613079675576889	6.139679028902878	6.667363403335981	8.55873254536367	-0.5373997427150998	7.202147982926677	-1.408801066023825	-2.965854234363912	17.20422325236231	-1.783160913786664	-0.5978469514675175	11.13840103814195	-1.913846295434146	-0.4809947255618174	6.925680577332441	1.73693108247307	10.22523984271792	8.943409346739074	3.294601926802332	14.25841063350731	
5298	52.97	8.914387362732329	-1.306811085422179	8.259069632208721	8.684616263607639	-2.619705091852344	6.016758787281301	6.768280202594045	9.409400274974301	-1.431565680303338	6.323044795360168	0.4717603514759141	-2.823448214814129	15.34130448811715	-3.237645606162376	-0.4699099808008401	11.53571717026496	-2.530576302288691	-0.5588590796623694	5.890949398494097	0.3864630405814356	9.636342345485902	12.1538324397988	4.177634403194716	14.15261169656402	
5299	52.98	8.690044981306212	-1.406372825228299	7.885888678989152	8.583658209533022	-3.151571376566055	5.804187142848589	7.455975816261247	9.977579286495715	-2.001130842753845	6.323467487978272	1.922774930127831	-2.181161736466348	12.94993584392912	-4.512295201810675	0.1417328489456869	11.86086646256172	-2.738264091324691	-0.5766395591575901	5.399382876224076	-0.3828356703962141	9.308363497650591	14.48084171936576	4.994853482824999	14.1528170424975	
5300	52.99	8.730804870289345	-1.464428544720946	7.542470448831979	8.804040154769911	-3.128434274224705	5.531549215292545	8.229571691449205	10.58715246120584	-2.190033783775781	6.9976083145942	2.500996411499123	-1.555036533150689	10.37309944902302	-5.562656820063794	1.079756701737226	12.09145860611877	-2.50496014102751	-0.4707566582287871	5.198361858318483	-0.6292363267208805	9.158982671213504	15.27252006477994	5.563209460207069	14.29731485234243	
5301	53	8.970383252573615	-1.490957503521255	7.288516259001216	9.213342124805658	-2.595114715611538	5.23121028357835	8.848734769350539	11.12551406495771	-1.966829399342627	8.062475762217312	2.126817226323888	-1.298450051070654	7.970848159303246	-6.477443796348131	2.047212188067491	12.20698221127361	-1.914609616598228	-0.2362882955410591	5.098921155147882	-0.507919288737996	9.120764392709816	14.55467720006653	5.875345884583897	14.64918432591788	
5302	53.01	9.29588681927126	-1.482095395234309	7.154510180160178	9.668636866914001	-1.693730915152413	4.929762579463631	9.362448192384338	11.04819168054352	-1.352996035727152	9.157120275488047	1.078686986351959	-1.406854324802712	5.950913091511501	-7.376750578529877	2.803736212433708	12.20895644257092	-1.130714826698049	0.08801804673238339	4.987225639097264	-0.1934207191711378	9.147098468481879	13.00662869416552	6.007675730044213	15.26155126142057	
5303	53.02	9.570610728938126	-1.423726453673858	7.130353763704393	10.05242355063539	-0.622060029445459	4.648506686185417	9.878318455460359	9.688758325051472	-0.4696435061335192	9.945371601192369	-0.1864382355917343	-1.640122901898467	4.292281622687925	-8.335448154431189	3.306706191001099	12.12526664879633	-0.3272387541106003	0.4487165044204947	4.809075389271516	0.15807570477215	9.200026527952415	11.495050538003	6.065574528017412	16.11550642701112	
5304	53.03	9.678830538322361	-1.302154003071029	7.175649013433549	10.29463457918111	0.4112951731212525	4.400341282821771	10.39184551927265	6.746093129635033	0.4490458349155698	10.25856020334643	-1.232415817508213	-1.753553716891682	2.845878224250895	-9.331735402133619	3.668923321912943	11.99623430783488	0.3825474598936946	0.8002062949569895	4.568098072023638	0.4298776610568876	9.245647438183966	10.44355883050235	6.216175094402397	17.01274767253231	
5305	53.04	9.577601164975365	-1.115772648464451	7.243247990886904	10.37580326732299	1.22867781738893	4.185123045617552	10.79955735745737	2.642584157237863	1.124137079764986	10.13914577445605	-1.770713009397497	-1.621867332572417	1.507426688903881	-10.22547371350202	3.995675823478949	11.85983883067252	0.9765069036838879	1.112868136644581	4.306069917486973	0.5606576270716088	9.262120957986077	9.510599408901392	6.618806442894435	17.45731074735168	
5306	53.05	9.31369348307733	-0.881156768333922	7.297245212614629	10.31532858301332	1.716986964590199	3.993929642562291	10.98578432493298	-1.545916890580879	1.362685088545752	9.771154777724918	-1.715871487629209	-1.239396495984349	0.3022009824910976	-10.79015934299225	4.271290292068043	11.74222966982589	1.491683453593909	1.363671618195823	4.068929095141953	0.5494694678121518	9.244510750497978	8.010676849636612	7.206465498481735	16.82125233929833	
5307	53.06	8.985211576450615	-0.6296224677536595	7.317637527084875	10.14956888315178	1.844386801446078	3.819176863313114	10.90025052265288	-4.584515543512352	1.156953368235171	9.37111375953508	-1.178842872132968	-0.6795830354568761	-0.6564073665789533	-10.80139879120222	4.39695913217572	11.64831147205869	1.960663692329079	1.526937713857894	3.886110088515098	0.43798122853162	9.201797739213099	5.71687791910784	7.636647384294046	14.86973072002074	
